<svg id="svg" version="1.1" xmlns="http://www.w3.org/2000/svg" xmlns:xlink="http://www.w3.org/1999/xlink" width="400" height="400" viewBox="0, 0, 400,400"><g id="svgg"><path id="path0" d="M97.117 47.392 C 96.404 47.798,95.961 48.449,95.818 49.304 C 95.171 53.160,96.205 281.390,96.869 281.518 C 97.874 281.711,99.169 279.170,102.421 270.625 C 104.006 266.459,107.040 259.529,109.162 255.225 C 111.284 250.921,113.612 245.894,114.336 244.054 C 115.060 242.213,116.531 239.306,117.604 237.593 C 118.678 235.880,121.119 231.356,123.029 227.539 C 124.939 223.723,127.909 218.501,129.628 215.935 C 131.348 213.370,133.396 210.040,134.181 208.535 C 136.007 205.031,138.949 200.425,141.572 196.959 C 144.954 192.492,144.383 191.712,137.682 191.640 C 134.290 191.604,133.877 191.513,132.977 190.613 L 131.990 189.627 132.095 142.628 C 132.194 98.127,132.238 95.590,132.914 94.914 C 133.582 94.246,135.421 94.187,161.250 94.000 L 188.871 93.800 189.636 92.856 C 190.232 92.119,190.415 91.197,190.466 88.656 L 190.532 85.400 190.884 88.600 C 191.077 90.360,191.363 100.350,191.518 110.800 C 191.859 133.776,191.599 132.943,196.788 127.700 C 198.475 125.995,200.923 123.592,202.228 122.360 C 203.532 121.127,205.701 118.967,207.046 117.560 C 208.392 116.152,210.822 113.723,212.446 112.162 C 214.071 110.602,216.495 108.172,217.834 106.762 C 219.173 105.353,221.692 102.918,223.433 101.350 L 226.597 98.501 226.861 94.750 C 227.379 87.386,227.233 49.489,226.682 48.400 L 226.177 47.400 209.653 47.296 L 193.129 47.191 191.946 48.458 L 190.762 49.725 189.681 48.488 L 188.600 47.252 143.400 47.015 C 103.184 46.804,98.081 46.845,97.117 47.392 M274.089 47.468 C 273.295 47.788,272.239 50.153,270.409 55.715 C 267.720 63.887,268.647 64.055,277.097 56.922 C 278.470 55.763,280.636 54.288,281.911 53.645 C 285.410 51.878,288.165 48.725,287.120 47.680 C 286.639 47.199,275.220 47.014,274.089 47.468 M303.034 48.419 C 301.976 49.090,300.186 50.496,299.056 51.544 C 297.925 52.591,296.010 54.149,294.800 55.005 C 293.590 55.861,290.890 58.113,288.800 60.010 C 286.710 61.907,284.190 64.016,283.200 64.696 C 282.210 65.377,280.140 67.226,278.600 68.806 C 277.060 70.386,274.619 72.632,273.176 73.796 C 271.733 74.960,268.296 78.137,265.540 80.856 L 260.527 85.800 258.875 90.672 C 257.966 93.351,256.961 96.797,256.642 98.329 C 256.322 99.861,255.511 102.488,254.839 104.166 C 254.167 105.843,253.330 108.325,252.979 109.680 C 252.628 111.034,251.924 112.966,251.415 113.971 C 250.906 114.977,249.926 117.751,249.237 120.134 C 248.548 122.518,247.732 124.958,247.423 125.556 C 247.114 126.154,246.584 128.073,246.246 129.822 C 245.907 131.570,244.703 135.520,243.569 138.600 C 242.435 141.680,241.009 145.820,240.400 147.800 C 239.791 149.780,238.821 152.443,238.243 153.719 C 237.666 154.994,236.908 157.693,236.559 159.716 C 236.209 161.740,235.770 163.683,235.581 164.035 C 235.393 164.387,234.440 166.998,233.463 169.837 C 226.955 188.757,227.029 188.953,226.885 152.562 C 226.784 127.073,226.697 123.535,226.163 123.330 C 225.081 122.915,221.501 125.813,219.301 128.883 C 218.152 130.487,216.495 132.790,215.620 134.000 C 214.744 135.210,213.097 137.533,211.960 139.163 C 210.822 140.793,208.970 143.162,207.845 144.428 C 206.720 145.695,204.867 148.231,203.726 150.065 C 202.585 151.899,200.665 154.540,199.458 155.933 C 198.252 157.326,196.592 159.756,195.770 161.333 C 194.949 162.910,193.719 164.985,193.038 165.945 L 191.800 167.690 191.668 268.813 L 191.537 369.937 192.368 370.768 C 193.680 372.080,225.050 372.071,226.238 370.758 C 226.976 369.942,227.006 368.375,227.200 320.051 L 227.400 270.186 228.895 267.193 C 230.539 263.902,232.367 259.236,235.003 251.603 C 238.001 242.921,238.673 243.768,243.068 261.764 C 243.386 263.064,243.885 264.594,244.177 265.164 C 244.744 266.270,245.790 270.910,246.214 274.200 C 246.356 275.300,246.823 277.190,247.254 278.400 C 247.684 279.610,248.370 281.950,248.779 283.600 C 249.708 287.350,251.300 293.049,252.801 298.000 C 255.073 305.495,256.375 310.665,256.981 314.600 C 257.320 316.800,258.231 320.670,259.006 323.200 C 259.781 325.730,261.119 330.410,261.979 333.600 C 262.839 336.790,263.834 340.210,264.189 341.200 C 264.998 343.454,265.824 347.147,266.561 351.800 C 266.874 353.780,267.605 356.660,268.185 358.200 C 268.765 359.740,269.677 362.767,270.212 364.927 C 272.009 372.189,271.489 371.995,289.143 371.998 C 300.629 372.000,302.455 372.081,302.263 372.580 C 302.129 372.930,302.349 373.257,302.820 373.406 C 303.249 373.543,303.600 373.825,303.600 374.035 C 303.600 374.893,306.671 373.718,308.771 372.058 L 309.741 371.290 308.705 369.145 C 308.135 367.965,307.468 365.673,307.223 364.052 C 306.977 362.430,306.580 360.736,306.340 360.288 C 306.100 359.839,305.380 357.476,304.740 355.036 C 304.100 352.596,302.607 347.540,301.422 343.800 C 300.238 340.060,298.973 335.650,298.611 334.000 C 298.249 332.350,297.324 328.480,296.555 325.400 C 295.265 320.237,294.588 317.917,291.771 309.000 C 289.454 301.668,287.896 295.964,287.182 292.200 C 286.764 290.000,285.964 286.670,285.403 284.800 C 284.842 282.930,283.675 278.880,282.809 275.800 C 281.942 272.720,280.768 268.850,280.199 267.200 C 278.605 262.576,277.663 258.813,277.007 254.449 C 276.678 252.254,275.941 249.230,275.370 247.729 C 274.799 246.228,274.057 243.830,273.721 242.400 C 273.386 240.970,272.846 238.990,272.521 238.000 C 272.197 237.010,271.401 234.400,270.754 232.200 C 270.106 230.000,269.056 226.490,268.419 224.400 C 267.783 222.310,266.966 218.890,266.605 216.800 C 265.875 212.579,264.944 208.902,263.464 204.400 C 259.236 191.533,259.261 192.387,262.818 182.953 C 264.368 178.842,265.992 173.951,266.427 172.085 C 266.862 170.218,267.669 167.563,268.221 166.185 C 268.772 164.807,269.482 162.684,269.799 161.468 C 270.116 160.251,271.080 157.669,271.942 155.728 C 272.804 153.788,273.823 151.210,274.206 150.000 C 274.590 148.790,275.308 146.810,275.803 145.600 C 276.298 144.390,276.913 142.168,277.170 140.662 C 277.427 139.156,278.369 136.096,279.263 133.862 C 282.102 126.771,285.796 115.985,287.916 108.600 C 288.357 107.060,289.642 103.280,290.771 100.200 C 295.660 86.856,296.925 83.189,297.833 79.738 C 298.362 77.724,299.174 75.204,299.637 74.138 C 300.647 71.813,302.926 65.502,305.611 57.600 C 308.857 48.043,308.067 45.228,303.034 48.419 M105.900 49.618 C 107.430 50.160,107.401 50.037,106.445 51.916 C 106.030 52.732,105.110 55.110,104.400 57.200 C 103.691 59.290,102.520 62.620,101.798 64.600 C 101.076 66.580,100.354 68.830,100.193 69.600 C 99.926 70.875,99.416 71.578,98.746 71.594 C 98.003 71.612,96.962 50.792,97.642 49.521 C 98.141 48.589,103.156 48.648,105.900 49.618 M340.662 53.508 C 340.697 53.591,340.074 54.255,339.278 54.984 L 337.830 56.311 337.946 83.210 C 338.071 112.451,337.972 111.288,340.569 114.000 C 344.600 118.210,357.380 137.096,358.833 140.990 C 359.323 142.304,360.348 144.354,361.111 145.546 C 361.873 146.738,363.106 149.083,363.849 150.757 C 364.593 152.431,365.728 154.790,366.372 156.000 C 367.016 157.210,367.852 159.460,368.231 161.000 C 368.610 162.540,369.332 164.627,369.835 165.637 C 370.338 166.647,371.237 169.167,371.832 171.237 C 372.427 173.307,373.219 175.720,373.592 176.600 C 375.733 181.655,378.563 195.978,379.203 205.000 C 379.437 208.300,379.815 212.170,380.042 213.600 C 380.733 217.950,380.279 242.356,379.313 252.816 C 378.195 264.915,375.475 278.664,371.916 290.200 C 371.237 292.400,370.181 295.820,369.568 297.800 C 368.956 299.780,368.338 302.210,368.195 303.200 C 367.930 305.044,366.695 309.092,365.906 310.700 C 365.582 311.362,365.586 311.838,365.924 312.500 C 366.177 312.995,366.581 313.940,366.822 314.600 L 367.261 315.800 368.236 314.671 C 368.773 314.050,369.090 313.330,368.942 313.071 C 368.793 312.812,368.818 312.733,368.997 312.895 C 369.315 313.182,371.200 310.972,371.200 310.313 C 371.200 310.130,371.785 309.116,372.500 308.058 C 373.215 307.001,374.217 305.430,374.726 304.568 C 375.235 303.706,376.290 301.920,377.071 300.600 C 378.892 297.517,385.026 285.309,385.411 284.000 C 385.572 283.450,386.221 281.970,386.852 280.711 C 387.483 279.453,388.000 278.068,388.000 277.635 C 388.000 277.202,388.158 276.750,388.351 276.631 C 388.543 276.511,389.372 274.656,390.192 272.507 C 391.012 270.358,391.928 267.970,392.227 267.200 C 392.526 266.430,393.146 264.450,393.604 262.800 C 394.886 258.180,395.965 254.496,397.029 251.111 C 397.563 249.412,398.000 247.608,398.000 247.103 C 398.000 246.597,398.345 244.928,398.766 243.392 C 400.030 238.788,400.308 230.698,399.243 229.554 C 398.779 229.056,398.400 228.863,398.400 229.125 C 398.400 229.386,398.220 229.600,398.000 229.600 C 397.440 229.600,397.484 221.363,398.050 220.306 C 398.552 219.368,398.584 196.603,398.084 195.837 C 397.928 195.596,397.668 192.700,397.506 189.400 C 397.023 179.531,396.393 174.589,394.419 165.203 C 393.749 162.014,393.200 158.932,393.200 158.353 C 393.200 157.774,392.919 156.513,392.575 155.550 C 392.231 154.588,391.767 152.810,391.544 151.600 C 391.320 150.390,390.796 148.349,390.379 147.065 C 389.962 145.781,389.422 143.171,389.179 141.265 C 388.936 139.359,388.191 136.360,387.525 134.600 C 386.858 132.840,385.811 129.870,385.199 128.000 C 384.587 126.130,383.527 123.380,382.843 121.890 C 382.159 120.399,381.600 118.925,381.600 118.614 C 381.600 118.302,381.446 117.952,381.259 117.836 C 380.269 117.225,379.496 113.177,380.217 112.381 C 380.605 111.953,380.906 111.062,380.888 110.401 C 380.863 109.540,381.044 109.191,381.527 109.168 C 381.947 109.149,382.011 109.061,381.698 108.934 C 381.421 108.823,381.297 108.567,381.421 108.366 C 381.545 108.165,381.446 108.000,381.200 108.000 C 380.954 108.000,380.864 107.820,381.000 107.600 C 381.136 107.380,380.967 107.200,380.624 107.200 C 380.062 107.200,379.821 106.733,379.953 105.900 C 379.979 105.735,379.746 105.600,379.435 105.600 C 379.121 105.600,378.921 105.290,378.984 104.900 C 379.046 104.515,378.895 103.940,378.649 103.623 C 378.365 103.258,378.356 103.140,378.626 103.301 C 379.706 103.947,373.655 93.366,369.328 87.043 C 368.409 85.699,366.653 83.115,365.426 81.300 C 364.199 79.485,363.028 78.000,362.825 78.000 C 362.621 78.000,362.338 77.635,362.197 77.189 C 362.055 76.743,361.242 75.528,360.391 74.489 C 359.539 73.450,357.977 71.548,356.921 70.261 C 355.356 68.356,340.448 52.995,340.662 53.508 M49.000 66.400 C 49.398 66.840,49.792 67.200,49.876 67.200 C 49.960 67.200,49.835 66.840,49.600 66.400 C 49.365 65.960,48.970 65.600,48.724 65.600 C 48.478 65.600,48.602 65.960,49.000 66.400 M50.624 68.200 C 51.561 70.459,51.306 73.964,50.064 75.911 C 49.400 76.950,48.417 78.976,47.879 80.414 C 47.341 81.852,46.450 83.922,45.899 85.014 C 44.409 87.969,42.506 92.827,40.810 98.008 C 39.980 100.542,38.472 104.265,37.459 106.282 C 36.446 108.299,35.497 110.725,35.349 111.674 C 35.201 112.624,34.556 114.718,33.915 116.328 C 33.275 117.939,32.489 120.622,32.170 122.291 C 31.408 126.272,30.581 129.521,29.393 133.200 C 28.860 134.850,27.956 138.531,27.385 141.381 C 26.814 144.231,26.264 146.697,26.162 146.861 C 25.381 148.125,23.448 160.285,22.834 167.800 C 22.655 170.000,22.294 172.722,22.032 173.848 C 21.465 176.289,21.703 204.446,22.339 210.200 C 23.484 220.553,23.953 223.655,24.786 226.400 C 25.019 227.170,25.558 229.780,25.982 232.200 C 26.407 234.620,27.396 238.825,28.180 241.544 C 28.965 244.263,29.793 247.773,30.021 249.344 C 30.249 250.915,30.611 253.104,30.826 254.209 C 31.363 256.970,30.523 261.130,28.634 265.060 C 26.263 269.992,21.639 282.053,21.520 283.613 C 21.463 284.366,21.059 285.168,20.525 285.587 C 20.031 285.976,19.756 286.425,19.914 286.586 C 20.071 286.747,19.769 286.816,19.242 286.739 C 18.570 286.642,18.251 286.809,18.177 287.300 C 18.119 287.685,18.254 288.000,18.478 288.000 C 18.702 288.000,18.778 287.721,18.647 287.379 C 18.502 287.001,18.575 286.861,18.832 287.020 C 19.064 287.163,19.162 287.521,19.050 287.815 C 18.937 288.108,18.997 288.405,19.183 288.474 C 19.369 288.543,19.235 288.864,18.884 289.187 C 18.323 289.704,18.276 289.701,18.484 289.158 C 18.624 288.792,18.406 288.346,17.945 288.058 C 17.518 287.792,17.254 287.436,17.359 287.267 C 17.463 287.098,17.208 286.748,16.793 286.488 C 15.923 285.945,15.480 286.365,16.020 287.219 C 16.339 287.722,16.391 287.720,16.412 287.200 C 16.425 286.870,16.800 287.292,17.246 288.137 C 17.692 288.982,17.971 289.899,17.866 290.173 C 17.760 290.448,17.854 290.926,18.075 291.236 C 18.389 291.678,18.425 291.644,18.242 291.079 C 18.114 290.683,18.165 290.455,18.356 290.573 C 18.547 290.691,18.798 291.151,18.914 291.594 C 19.030 292.038,18.964 292.302,18.767 292.180 C 18.570 292.058,18.520 292.248,18.656 292.602 C 18.808 292.997,19.154 293.150,19.552 292.999 C 20.049 292.810,20.091 292.863,19.731 293.225 C 19.152 293.809,19.482 294.820,20.166 294.558 C 20.442 294.452,20.667 294.635,20.667 294.965 C 20.667 295.295,20.499 295.461,20.293 295.334 C 20.088 295.207,20.119 295.475,20.362 295.929 C 20.605 296.384,21.011 296.883,21.264 297.040 C 21.567 297.227,21.614 297.146,21.400 296.800 C 21.183 296.449,21.232 296.373,21.549 296.568 C 21.809 296.729,21.995 297.072,21.963 297.330 C 21.841 298.322,22.016 298.838,22.395 298.603 C 22.613 298.468,22.703 298.593,22.596 298.879 C 22.398 299.407,23.689 301.694,24.150 301.633 C 24.865 301.539,24.941 301.650,24.400 302.000 C 23.964 302.282,23.943 302.389,24.324 302.394 C 24.612 302.397,24.731 302.588,24.589 302.818 C 24.226 303.405,25.539 305.285,26.079 304.951 C 26.345 304.787,26.411 304.858,26.243 305.130 C 25.895 305.693,26.710 307.303,27.192 307.005 C 27.386 306.885,27.675 306.998,27.834 307.255 C 28.015 307.548,27.950 307.616,27.662 307.438 C 27.024 307.044,27.082 307.539,27.752 308.210 C 28.056 308.513,28.426 308.641,28.574 308.493 C 28.721 308.345,28.745 308.489,28.626 308.812 C 28.356 309.546,30.107 312.634,30.720 312.505 C 30.968 312.452,31.076 312.658,30.960 312.961 C 30.843 313.265,31.260 314.117,31.885 314.856 C 32.511 315.595,33.535 316.962,34.161 317.893 C 34.787 318.824,35.455 319.490,35.645 319.372 C 35.835 319.255,35.895 319.409,35.778 319.714 C 35.660 320.020,36.157 321.025,36.882 321.947 C 37.607 322.869,38.866 324.474,39.679 325.512 C 43.509 330.401,45.618 332.705,54.000 341.161 C 58.950 346.154,62.968 350.169,62.928 350.082 C 62.889 349.995,63.474 349.357,64.228 348.664 L 65.600 347.406 65.600 328.236 L 65.600 309.066 64.193 306.507 C 62.459 303.352,60.238 300.320,57.231 297.002 C 55.968 295.608,54.248 293.148,53.409 291.534 C 52.570 289.920,51.302 287.790,50.591 286.800 C 47.517 282.516,42.963 274.796,42.098 272.400 C 41.581 270.970,39.449 266.329,37.360 262.086 C 34.962 257.217,33.342 253.382,32.967 251.686 C 32.640 250.209,31.393 245.940,30.196 242.200 C 28.998 238.460,27.652 233.510,27.204 231.200 C 26.756 228.890,26.205 226.460,25.979 225.800 C 25.053 223.093,24.095 217.487,23.109 209.000 C 22.512 203.863,22.513 175.310,23.110 169.400 C 24.145 159.152,24.434 157.447,27.746 142.000 C 28.524 138.370,29.431 134.635,29.762 133.701 C 30.516 131.573,32.212 124.977,32.822 121.800 C 33.076 120.480,33.794 118.050,34.418 116.400 C 35.042 114.750,35.679 112.691,35.835 111.826 C 35.990 110.960,37.075 108.212,38.246 105.719 C 39.418 103.227,40.899 99.525,41.539 97.494 C 42.737 93.689,44.524 89.202,46.918 83.986 C 47.672 82.344,48.494 80.370,48.745 79.600 C 48.996 78.830,49.740 77.390,50.399 76.400 C 51.828 74.253,52.125 69.687,50.933 68.200 L 50.292 67.400 50.624 68.200 M42.400 72.067 C 42.400 72.755,42.262 73.013,41.640 73.487 C 40.692 74.209,41.471 74.103,42.614 73.354 C 43.711 72.635,43.926 71.733,43.000 71.733 C 42.670 71.733,42.400 71.883,42.400 72.067 M39.871 75.500 C 39.624 75.918,40.363 77.771,40.658 77.475 C 40.790 77.343,40.758 76.912,40.586 76.517 C 40.414 76.123,40.302 75.665,40.336 75.500 C 40.371 75.335,40.321 75.200,40.224 75.200 C 40.127 75.200,39.968 75.335,39.871 75.500 M41.320 78.792 C 41.220 80.181,39.998 82.391,38.412 84.050 C 37.746 84.747,36.711 86.326,36.112 87.558 C 35.512 88.791,34.515 90.556,33.896 91.479 C 33.277 92.403,32.416 94.191,31.982 95.452 C 31.548 96.714,30.230 99.558,29.054 101.773 C 27.877 103.988,26.241 107.330,25.417 109.200 C 24.594 111.070,23.485 113.457,22.954 114.505 C 22.422 115.553,21.722 117.671,21.398 119.211 C 21.074 120.752,20.015 123.944,19.045 126.306 C 18.075 128.668,16.704 132.490,15.998 134.800 C 15.292 137.110,14.109 140.890,13.368 143.200 C 12.628 145.510,11.904 148.660,11.759 150.200 C 11.615 151.740,10.701 156.870,9.729 161.600 C 7.525 172.322,7.074 175.572,5.927 189.000 C 4.729 203.038,5.576 231.927,7.542 244.000 C 7.774 245.430,8.135 247.680,8.342 249.000 C 8.992 253.140,9.677 256.565,10.045 257.519 C 10.240 258.024,10.400 258.959,10.400 259.595 C 10.400 260.232,10.580 260.864,10.800 261.000 C 11.500 261.433,11.310 266.528,10.604 266.257 C 10.206 266.104,9.928 266.349,9.766 266.992 C 9.633 267.522,9.311 268.011,9.051 268.078 C 8.735 268.159,8.805 268.424,9.260 268.872 C 9.900 269.501,9.999 269.494,10.833 268.772 C 11.322 268.347,11.875 268.000,12.061 268.000 C 12.694 268.000,12.411 262.030,11.647 259.273 C 10.978 256.857,10.604 255.035,9.211 247.400 C 9.011 246.300,8.652 244.402,8.413 243.183 C 7.701 239.538,7.149 234.889,6.826 229.800 C 6.658 227.160,6.304 224.082,6.040 222.960 C 4.123 214.820,6.462 180.779,10.243 161.800 C 11.207 156.960,12.109 151.830,12.248 150.400 C 12.386 148.970,13.085 145.910,13.801 143.600 C 14.517 141.290,15.683 137.510,16.392 135.200 C 17.101 132.890,18.475 129.067,19.445 126.705 C 20.415 124.343,21.484 121.193,21.819 119.705 C 22.474 116.803,25.999 108.714,29.462 102.173 C 30.634 99.958,31.959 97.078,32.406 95.773 C 32.853 94.468,33.821 92.410,34.557 91.200 C 35.293 89.990,36.217 88.280,36.611 87.400 C 37.005 86.520,37.912 85.170,38.627 84.400 C 40.707 82.161,42.498 78.354,41.701 77.863 C 41.536 77.761,41.364 78.179,41.320 78.792 M174.891 195.500 C 174.245 196.325,173.487 197.450,173.208 198.000 C 172.743 198.915,170.743 202.394,166.768 209.200 C 165.933 210.630,165.127 212.340,164.977 213.000 C 164.619 214.575,160.408 223.390,158.194 227.200 C 155.196 232.359,154.453 236.799,156.496 237.347 C 159.201 238.072,175.084 237.606,176.146 236.771 L 177.200 235.942 177.195 215.871 C 177.188 192.227,177.222 192.527,174.891 195.500 M12.610 278.784 C 12.271 279.333,12.571 279.745,13.162 279.542 C 13.404 279.458,13.435 279.176,13.237 278.857 C 12.987 278.455,12.825 278.436,12.610 278.784 M13.934 281.951 C 14.228 282.137,14.453 282.404,14.434 282.545 C 14.328 283.339,14.488 284.137,14.666 283.698 C 14.777 283.421,15.078 283.299,15.334 283.427 C 15.590 283.555,15.514 283.421,15.165 283.130 C 14.816 282.838,14.606 282.375,14.698 282.100 C 14.793 281.819,14.545 281.603,14.133 281.606 C 13.578 281.611,13.530 281.695,13.934 281.951 M130.641 323.930 C 129.917 325.320,129.392 327.813,128.793 332.708 C 128.597 334.308,128.335 335.781,128.211 335.983 C 128.086 336.184,127.784 338.116,127.540 340.275 C 125.901 354.752,125.566 369.287,126.841 370.643 C 128.598 372.514,131.320 371.726,132.015 369.145 C 132.494 367.366,132.117 325.487,131.605 323.600 L 131.334 322.600 130.641 323.930 M96.349 339.461 C 95.707 340.233,95.315 366.185,95.910 368.486 L 96.249 369.800 100.774 369.914 C 107.477 370.082,107.200 370.421,107.200 362.045 L 107.200 355.309 104.855 350.545 C 100.238 341.163,97.691 337.845,96.349 339.461 " stroke="none" fill="#26c8fc" fill-rule="evenodd"></path><path id="path1" d="M97.642 49.521 C 96.962 50.792,98.003 71.612,98.746 71.594 C 99.416 71.578,99.926 70.875,100.193 69.600 C 100.354 68.830,101.076 66.580,101.798 64.600 C 102.520 62.620,103.691 59.290,104.400 57.200 C 105.110 55.110,106.030 52.732,106.445 51.916 C 107.401 50.037,107.430 50.160,105.900 49.618 C 103.156 48.648,98.141 48.589,97.642 49.521 M45.919 67.047 C 43.904 69.701,42.614 71.762,43.192 71.405 C 44.095 70.847,43.529 72.754,42.614 73.354 C 41.458 74.111,41.042 74.180,41.432 73.548 C 41.592 73.289,41.504 73.165,41.226 73.258 C 40.959 73.347,40.761 73.560,40.788 73.732 C 40.814 73.903,40.422 74.409,39.918 74.855 C 39.243 75.452,39.184 75.609,39.695 75.448 C 40.078 75.327,40.364 75.357,40.332 75.514 C 40.225 76.031,40.929 77.394,41.472 77.721 C 42.496 78.339,41.005 81.840,38.627 84.400 C 37.912 85.170,37.005 86.520,36.611 87.400 C 36.217 88.280,35.293 89.990,34.557 91.200 C 33.821 92.410,32.853 94.468,32.406 95.773 C 31.959 97.078,30.634 99.958,29.462 102.173 C 25.999 108.714,22.474 116.803,21.819 119.705 C 21.484 121.193,20.415 124.343,19.445 126.705 C 18.475 129.067,17.101 132.890,16.392 135.200 C 15.683 137.510,14.517 141.290,13.801 143.600 C 13.085 145.910,12.386 148.970,12.248 150.400 C 12.109 151.830,11.207 156.960,10.243 161.800 C 6.868 178.739,6.065 186.934,5.758 207.560 C 5.615 217.188,5.694 221.490,6.040 222.960 C 6.304 224.082,6.658 227.160,6.826 229.800 C 7.149 234.889,7.701 239.538,8.413 243.183 C 8.652 244.402,9.011 246.300,9.211 247.400 C 10.604 255.035,10.978 256.857,11.647 259.273 C 12.411 262.030,12.694 268.000,12.061 268.000 C 11.875 268.000,11.303 268.364,10.790 268.809 C 10.081 269.424,9.783 269.497,9.547 269.114 C 9.347 268.791,9.260 268.932,9.303 269.505 C 9.340 269.997,9.492 270.400,9.641 270.400 C 9.789 270.400,9.903 270.625,9.893 270.900 C 9.825 272.711,10.027 273.275,10.657 273.034 C 11.204 272.824,11.229 272.883,10.812 273.386 C 10.403 273.879,10.425 274.035,10.930 274.228 C 11.271 274.359,11.451 274.724,11.330 275.038 C 11.209 275.353,11.286 275.833,11.500 276.105 C 11.714 276.377,12.010 277.102,12.157 277.716 C 12.303 278.330,12.579 278.736,12.770 278.619 C 12.960 278.501,13.219 278.674,13.346 279.002 C 13.472 279.331,13.356 279.603,13.087 279.606 C 12.740 279.610,12.753 279.709,13.134 279.951 C 13.428 280.137,13.653 280.404,13.634 280.545 C 13.527 281.347,13.663 281.600,14.200 281.600 C 14.530 281.600,14.800 281.791,14.800 282.024 C 14.800 282.257,14.575 282.331,14.300 282.189 C 14.025 282.047,14.250 282.322,14.800 282.800 C 15.350 283.278,15.575 283.553,15.300 283.411 C 14.978 283.245,14.800 283.448,14.800 283.984 C 14.800 284.677,14.983 284.779,15.900 284.598 C 16.897 284.402,16.917 284.418,16.106 284.776 C 15.212 285.170,15.212 285.170,17.035 288.785 C 18.038 290.773,18.930 292.400,19.017 292.400 C 19.260 292.400,18.772 291.232,17.406 288.546 C 16.478 286.721,16.337 286.203,16.853 286.526 C 17.236 286.765,17.463 287.098,17.359 287.267 C 17.254 287.436,17.518 287.792,17.945 288.058 C 18.406 288.346,18.624 288.792,18.484 289.158 C 18.276 289.701,18.323 289.704,18.884 289.187 C 19.235 288.864,19.369 288.543,19.183 288.474 C 18.997 288.405,18.937 288.108,19.050 287.815 C 19.162 287.521,19.064 287.163,18.832 287.020 C 18.575 286.861,18.502 287.001,18.647 287.379 C 18.778 287.721,18.702 288.000,18.478 288.000 C 18.254 288.000,18.119 287.685,18.177 287.300 C 18.251 286.809,18.570 286.642,19.242 286.739 C 19.769 286.816,20.071 286.747,19.914 286.586 C 19.756 286.425,20.031 285.976,20.525 285.587 C 21.059 285.168,21.463 284.366,21.520 283.613 C 21.639 282.053,26.263 269.992,28.634 265.060 C 30.523 261.130,31.363 256.970,30.826 254.209 C 30.611 253.104,30.249 250.915,30.021 249.344 C 29.793 247.773,28.965 244.263,28.180 241.544 C 27.396 238.825,26.407 234.620,25.982 232.200 C 25.558 229.780,25.019 227.170,24.786 226.400 C 23.953 223.655,23.484 220.553,22.339 210.200 C 21.703 204.446,21.465 176.289,22.032 173.848 C 22.294 172.722,22.655 170.000,22.834 167.800 C 23.448 160.285,25.381 148.125,26.162 146.861 C 26.264 146.697,26.814 144.231,27.385 141.381 C 27.956 138.531,28.860 134.850,29.393 133.200 C 30.581 129.521,31.408 126.272,32.170 122.291 C 32.489 120.622,33.275 117.939,33.915 116.328 C 34.556 114.718,35.201 112.624,35.349 111.674 C 35.497 110.725,36.446 108.299,37.459 106.282 C 38.472 104.265,39.980 100.542,40.810 98.008 C 42.506 92.827,44.409 87.969,45.899 85.014 C 46.450 83.922,47.341 81.852,47.879 80.414 C 48.417 78.976,49.385 76.974,50.029 75.965 C 52.053 72.793,51.636 69.022,48.944 66.168 L 47.638 64.783 45.919 67.047 " stroke="none" fill="#d5f0fc" fill-rule="evenodd"></path><path id="path2" d="M162.000 0.277 C 158.674 0.838,154.239 1.843,148.800 3.270 C 145.390 4.165,141.610 5.141,140.400 5.440 C 139.190 5.738,137.210 6.369,136.000 6.841 C 134.790 7.313,131.866 8.376,129.502 9.203 C 127.138 10.030,124.591 10.998,123.842 11.353 C 123.092 11.709,122.326 12.000,122.140 11.999 C 121.703 11.999,115.240 14.990,108.600 18.266 C 103.609 20.729,100.003 22.703,95.139 25.637 C 93.896 26.386,92.006 27.523,90.939 28.163 C 88.384 29.696,85.669 31.536,82.000 34.221 C 80.350 35.428,78.280 36.901,77.400 37.492 C 76.520 38.084,74.952 39.296,73.915 40.184 C 72.879 41.073,70.824 42.790,69.350 44.000 C 63.897 48.475,46.687 65.759,47.883 65.558 C 51.117 65.017,52.890 72.656,50.399 76.400 C 49.740 77.390,48.996 78.830,48.745 79.600 C 48.494 80.370,47.672 82.344,46.918 83.986 C 44.524 89.202,42.737 93.689,41.539 97.494 C 40.899 99.525,39.418 103.227,38.246 105.719 C 37.075 108.212,35.990 110.960,35.835 111.826 C 35.679 112.691,35.042 114.750,34.418 116.400 C 33.794 118.050,33.076 120.480,32.822 121.800 C 32.212 124.977,30.516 131.573,29.762 133.701 C 29.431 134.635,28.524 138.370,27.746 142.000 C 24.434 157.447,24.145 159.152,23.110 169.400 C 22.513 175.310,22.512 203.863,23.109 209.000 C 24.095 217.487,25.053 223.093,25.979 225.800 C 26.205 226.460,26.756 228.890,27.204 231.200 C 27.652 233.510,28.998 238.460,30.196 242.200 C 31.393 245.940,32.640 250.209,32.967 251.686 C 33.342 253.382,34.962 257.217,37.360 262.086 C 39.449 266.329,41.581 270.970,42.098 272.400 C 42.963 274.796,47.517 282.516,50.591 286.800 C 51.302 287.790,52.570 289.920,53.409 291.534 C 54.248 293.148,55.968 295.608,57.231 297.002 C 60.238 300.320,62.459 303.352,64.193 306.507 L 65.600 309.066 65.600 328.236 L 65.600 347.406 64.159 348.728 L 62.718 350.051 65.329 352.525 C 69.633 356.603,72.269 358.814,76.400 361.812 C 77.170 362.371,78.880 363.623,80.200 364.595 C 90.499 372.176,107.427 382.010,116.295 385.563 C 117.343 385.982,119.550 386.902,121.200 387.605 C 129.437 391.118,134.627 392.958,142.600 395.195 C 144.360 395.689,147.170 396.522,148.844 397.046 C 150.518 397.571,152.318 398.005,152.844 398.012 C 153.370 398.018,155.060 398.411,156.600 398.885 C 159.678 399.833,232.078 400.525,238.616 399.669 C 242.311 399.186,247.072 398.173,251.000 397.036 C 252.760 396.527,255.640 395.702,257.400 395.204 C 262.957 393.630,269.281 391.533,272.800 390.096 C 274.670 389.333,277.010 388.390,278.000 388.000 C 285.055 385.225,304.398 375.406,304.722 374.434 C 304.806 374.183,304.600 374.102,304.233 374.243 C 303.885 374.376,303.600 374.298,303.600 374.070 C 303.600 373.841,303.249 373.543,302.820 373.406 C 302.349 373.257,302.129 372.930,302.263 372.580 C 302.455 372.081,300.629 372.000,289.143 371.998 C 271.489 371.995,272.009 372.189,270.212 364.927 C 269.677 362.767,268.765 359.740,268.185 358.200 C 267.605 356.660,266.874 353.780,266.561 351.800 C 265.824 347.147,264.998 343.454,264.189 341.200 C 263.834 340.210,262.839 336.790,261.979 333.600 C 261.119 330.410,259.781 325.730,259.006 323.200 C 258.231 320.670,257.320 316.800,256.981 314.600 C 256.375 310.665,255.073 305.495,252.801 298.000 C 251.300 293.049,249.708 287.350,248.779 283.600 C 248.370 281.950,247.684 279.610,247.254 278.400 C 246.823 277.190,246.356 275.300,246.214 274.200 C 245.790 270.910,244.744 266.270,244.177 265.164 C 243.885 264.594,243.386 263.064,243.068 261.764 C 238.673 243.768,238.001 242.921,235.003 251.603 C 232.367 259.236,230.539 263.902,228.895 267.193 L 227.400 270.186 227.200 320.051 C 227.006 368.375,226.976 369.942,226.238 370.758 C 225.050 372.071,193.680 372.080,192.368 370.768 L 191.537 369.937 191.668 268.813 L 191.800 167.690 193.038 165.945 C 193.719 164.985,194.949 162.910,195.770 161.333 C 196.592 159.756,198.252 157.326,199.458 155.933 C 200.665 154.540,202.585 151.899,203.726 150.065 C 204.867 148.231,206.720 145.695,207.845 144.428 C 208.970 143.162,210.822 140.793,211.960 139.163 C 213.097 137.533,214.744 135.210,215.620 134.000 C 216.495 132.790,218.152 130.487,219.301 128.883 C 221.501 125.813,225.081 122.915,226.163 123.330 C 226.697 123.535,226.784 127.073,226.885 152.562 C 227.029 188.953,226.955 188.757,233.463 169.837 C 234.440 166.998,235.393 164.387,235.581 164.035 C 235.770 163.683,236.209 161.740,236.559 159.716 C 236.908 157.693,237.666 154.994,238.243 153.719 C 238.821 152.443,239.791 149.780,240.400 147.800 C 241.009 145.820,242.435 141.680,243.569 138.600 C 244.703 135.520,245.907 131.570,246.246 129.822 C 246.584 128.073,247.114 126.154,247.423 125.556 C 247.732 124.958,248.548 122.518,249.237 120.134 C 249.926 117.751,250.906 114.977,251.415 113.971 C 251.924 112.966,252.628 111.034,252.979 109.680 C 253.330 108.325,254.167 105.843,254.839 104.166 C 255.511 102.488,256.322 99.861,256.642 98.329 C 256.961 96.797,257.966 93.351,258.875 90.672 L 260.527 85.800 265.540 80.856 C 268.296 78.137,271.733 74.960,273.176 73.796 C 274.619 72.632,277.060 70.386,278.600 68.806 C 280.140 67.226,282.210 65.377,283.200 64.696 C 284.190 64.016,286.710 61.907,288.800 60.010 C 290.890 58.113,293.590 55.861,294.800 55.005 C 296.010 54.149,297.925 52.591,299.056 51.544 C 304.544 46.457,307.612 45.895,307.590 49.980 C 307.579 52.059,302.422 67.726,299.637 74.138 C 299.174 75.204,298.362 77.724,297.833 79.738 C 296.925 83.189,295.660 86.856,290.771 100.200 C 289.642 103.280,288.357 107.060,287.916 108.600 C 285.796 115.985,282.102 126.771,279.263 133.862 C 278.369 136.096,277.427 139.156,277.170 140.662 C 276.913 142.168,276.298 144.390,275.803 145.600 C 275.308 146.810,274.590 148.790,274.206 150.000 C 273.823 151.210,272.804 153.788,271.942 155.728 C 271.080 157.669,270.116 160.251,269.799 161.468 C 269.482 162.684,268.772 164.807,268.221 166.185 C 267.669 167.563,266.862 170.218,266.427 172.085 C 265.992 173.951,264.368 178.842,262.818 182.953 C 259.261 192.387,259.236 191.533,263.464 204.400 C 264.944 208.902,265.875 212.579,266.605 216.800 C 266.966 218.890,267.783 222.310,268.419 224.400 C 269.056 226.490,270.106 230.000,270.754 232.200 C 271.401 234.400,272.197 237.010,272.521 238.000 C 272.846 238.990,273.386 240.970,273.721 242.400 C 274.057 243.830,274.799 246.228,275.370 247.729 C 275.941 249.230,276.678 252.254,277.007 254.449 C 277.663 258.813,278.605 262.576,280.199 267.200 C 280.768 268.850,281.942 272.720,282.809 275.800 C 283.675 278.880,284.842 282.930,285.403 284.800 C 285.964 286.670,286.764 290.000,287.182 292.200 C 287.896 295.964,289.454 301.668,291.771 309.000 C 294.588 317.917,295.265 320.237,296.555 325.400 C 297.324 328.480,298.249 332.350,298.611 334.000 C 298.973 335.650,300.238 340.060,301.422 343.800 C 302.607 347.540,304.111 352.580,304.765 355.000 C 305.418 357.420,306.216 360.120,306.538 361.000 C 306.859 361.880,307.253 363.656,307.413 364.947 C 307.667 366.994,309.981 372.669,309.995 371.276 C 309.998 370.988,310.151 370.846,310.334 370.959 C 310.518 371.073,311.908 370.274,313.423 369.183 C 314.938 368.092,316.284 367.200,316.414 367.200 C 316.543 367.200,316.998 366.878,317.425 366.483 C 317.851 366.089,319.010 365.186,320.000 364.476 C 320.990 363.765,322.610 362.559,323.600 361.796 C 324.590 361.032,325.850 360.100,326.400 359.725 C 326.950 359.350,328.422 358.088,329.670 356.921 C 330.919 355.755,332.094 354.800,332.282 354.800 C 332.728 354.800,354.399 333.112,354.920 332.143 C 355.140 331.735,356.148 330.468,357.160 329.330 C 358.172 328.191,359.592 326.481,360.316 325.530 C 361.039 324.578,362.209 323.054,362.916 322.143 C 366.647 317.329,368.532 314.176,367.179 315.013 C 366.971 315.142,366.800 315.039,366.800 314.784 C 366.800 314.529,366.505 313.699,366.144 312.939 C 365.641 311.879,365.588 311.351,365.918 310.678 C 366.694 309.091,367.932 305.034,368.199 303.200 C 368.441 301.534,369.036 299.458,372.037 289.800 C 375.433 278.875,378.210 264.758,379.313 252.816 C 380.279 242.356,380.733 217.950,380.042 213.600 C 379.815 212.170,379.437 208.300,379.203 205.000 C 378.563 195.978,375.733 181.655,373.592 176.600 C 373.219 175.720,372.427 173.307,371.832 171.237 C 371.237 169.167,370.338 166.647,369.835 165.637 C 369.332 164.627,368.610 162.540,368.231 161.000 C 367.852 159.460,367.016 157.210,366.372 156.000 C 365.728 154.790,364.593 152.431,363.849 150.757 C 363.106 149.083,361.873 146.738,361.111 145.546 C 360.348 144.354,359.323 142.304,358.833 140.990 C 357.380 137.096,344.600 118.210,340.569 114.000 C 337.972 111.288,338.071 112.451,337.946 83.210 L 337.830 56.311 339.354 54.914 L 340.878 53.518 336.470 49.259 C 331.692 44.642,329.087 42.327,326.391 40.301 C 325.439 39.585,324.017 38.516,323.230 37.925 C 322.444 37.334,320.360 35.844,318.600 34.613 C 316.840 33.383,314.590 31.782,313.600 31.056 C 312.610 30.330,310.990 29.282,310.000 28.727 C 309.010 28.172,307.308 27.107,306.217 26.359 C 301.552 23.163,286.056 15.333,277.200 11.698 C 272.487 9.763,261.870 6.083,257.400 4.835 C 249.088 2.514,243.715 1.249,238.600 0.410 C 236.291 0.031,164.202 -0.094,162.000 0.277 M189.681 48.488 L 190.762 49.725 191.946 48.458 L 193.129 47.191 209.653 47.296 L 226.177 47.400 226.682 48.400 C 227.233 49.489,227.379 87.386,226.861 94.750 L 226.597 98.501 223.433 101.350 C 221.692 102.918,219.173 105.353,217.834 106.762 C 216.495 108.172,214.071 110.602,212.446 112.162 C 210.822 113.723,208.392 116.152,207.046 117.560 C 205.701 118.967,203.532 121.127,202.228 122.360 C 200.923 123.592,198.475 125.995,196.788 127.700 C 191.599 132.943,191.859 133.776,191.518 110.800 C 191.363 100.350,191.077 90.360,190.884 88.600 L 190.532 85.400 190.466 88.656 C 190.415 91.197,190.232 92.119,189.636 92.856 L 188.871 93.800 161.250 94.000 C 135.421 94.187,133.582 94.246,132.914 94.914 C 132.238 95.590,132.194 98.127,132.095 142.628 L 131.990 189.627 132.977 190.613 C 133.877 191.513,134.290 191.604,137.682 191.640 C 144.383 191.712,144.954 192.492,141.572 196.959 C 138.949 200.425,136.007 205.031,134.181 208.535 C 133.396 210.040,131.348 213.370,129.628 215.935 C 127.909 218.501,124.939 223.723,123.029 227.539 C 121.119 231.356,118.678 235.880,117.604 237.593 C 116.531 239.306,115.060 242.213,114.336 244.054 C 113.612 245.894,111.284 250.921,109.162 255.225 C 107.040 259.529,104.006 266.459,102.421 270.625 C 99.169 279.170,97.874 281.711,96.869 281.518 C 96.205 281.390,95.171 53.160,95.818 49.304 C 96.269 46.609,93.296 46.752,143.400 47.015 L 188.600 47.252 189.681 48.488 M287.120 47.680 C 288.165 48.725,285.410 51.878,281.911 53.645 C 280.636 54.288,278.470 55.763,277.097 56.922 C 268.647 64.055,267.720 63.887,270.409 55.715 C 272.239 50.153,273.295 47.788,274.089 47.468 C 275.220 47.014,286.639 47.199,287.120 47.680 M42.041 71.414 C 40.584 73.074,40.551 73.200,41.577 73.200 C 42.143 73.200,42.312 72.979,42.198 72.387 C 42.088 71.817,42.230 71.608,42.673 71.687 C 43.066 71.757,43.361 71.459,43.450 70.900 C 43.643 69.701,43.499 69.754,42.041 71.414 M39.036 75.231 C 38.466 75.908,38.000 76.621,38.000 76.817 C 38.000 77.012,37.487 77.763,36.860 78.486 C 36.233 79.209,34.928 80.930,33.960 82.312 C 32.992 83.694,31.701 85.494,31.091 86.312 C 30.481 87.130,29.450 88.822,28.800 90.071 C 28.150 91.320,27.416 92.467,27.168 92.620 C 26.921 92.773,26.464 93.461,26.152 94.149 C 25.840 94.837,24.519 97.200,23.216 99.400 C 20.408 104.139,15.600 113.374,15.600 114.029 C 15.600 114.283,14.790 116.108,13.800 118.086 C 12.810 120.063,12.000 121.950,12.000 122.279 C 12.000 122.608,11.723 123.354,11.385 123.938 C 10.131 126.102,4.576 142.706,3.802 146.600 C 3.671 147.260,3.402 148.430,3.204 149.200 C 3.006 149.970,2.460 152.220,1.991 154.200 C 1.522 156.180,0.932 158.340,0.680 159.000 C 0.075 160.584,-0.219 233.730,0.363 237.813 C 0.937 241.842,1.500 244.695,2.214 247.200 C 3.044 250.114,3.513 251.941,3.802 253.400 C 5.582 262.363,8.980 270.126,9.761 267.014 C 9.927 266.353,10.204 266.104,10.604 266.257 C 11.310 266.528,11.500 261.433,10.800 261.000 C 10.580 260.864,10.400 260.232,10.400 259.595 C 10.400 258.959,10.240 258.024,10.045 257.519 C 9.677 256.565,8.992 253.140,8.342 249.000 C 8.135 247.680,7.774 245.430,7.542 244.000 C 5.576 231.927,4.729 203.038,5.927 189.000 C 7.074 175.572,7.525 172.322,9.729 161.600 C 10.701 156.870,11.615 151.740,11.759 150.200 C 11.904 148.660,12.628 145.510,13.368 143.200 C 14.109 140.890,15.292 137.110,15.998 134.800 C 16.704 132.490,18.075 128.668,19.045 126.306 C 20.015 123.944,21.074 120.752,21.398 119.211 C 21.722 117.671,22.422 115.553,22.954 114.505 C 23.485 113.457,24.594 111.070,25.417 109.200 C 26.241 107.330,27.877 103.988,29.054 101.773 C 30.230 99.558,31.548 96.714,31.982 95.452 C 32.416 94.191,33.277 92.403,33.896 91.479 C 34.515 90.556,35.512 88.791,36.112 87.558 C 36.711 86.326,37.746 84.747,38.412 84.050 C 40.718 81.637,42.147 78.185,41.020 77.752 C 39.733 77.258,39.165 75.270,40.120 74.601 C 40.592 74.270,40.774 74.000,40.525 74.000 C 40.275 74.000,39.605 74.554,39.036 75.231 M378.692 103.691 C 378.915 103.971,379.046 104.515,378.984 104.900 C 378.921 105.290,379.121 105.600,379.435 105.600 C 379.746 105.600,379.979 105.735,379.953 105.900 C 379.822 106.725,380.059 107.200,380.600 107.200 C 381.398 107.200,381.357 106.720,380.478 105.775 C 379.750 104.994,379.600 104.698,379.600 104.043 C 379.600 103.846,379.305 103.572,378.943 103.434 C 378.451 103.245,378.388 103.309,378.692 103.691 M380.888 110.401 C 380.906 111.062,380.605 111.953,380.217 112.381 C 379.496 113.177,380.269 117.225,381.259 117.836 C 381.446 117.952,381.600 118.302,381.600 118.614 C 381.600 118.925,382.159 120.399,382.843 121.890 C 383.527 123.380,384.587 126.130,385.199 128.000 C 385.811 129.870,386.858 132.840,387.525 134.600 C 388.191 136.360,388.936 139.359,389.179 141.265 C 389.422 143.171,389.962 145.781,390.379 147.065 C 390.796 148.349,391.320 150.390,391.544 151.600 C 391.767 152.810,392.231 154.588,392.575 155.550 C 392.919 156.513,393.200 157.774,393.200 158.353 C 393.200 158.932,393.749 162.014,394.419 165.203 C 396.393 174.589,397.023 179.531,397.506 189.400 C 397.668 192.700,397.928 195.596,398.084 195.837 C 398.584 196.603,398.552 219.368,398.050 220.306 C 397.484 221.363,397.440 229.600,398.000 229.600 C 398.220 229.600,398.406 229.375,398.413 229.100 C 398.420 228.795,398.632 228.872,398.957 229.300 C 399.249 229.685,399.603 230.000,399.744 230.000 C 400.132 230.000,399.983 164.124,399.589 161.600 C 398.965 157.601,398.423 155.044,397.386 151.200 C 396.821 149.110,396.211 146.680,396.029 145.800 C 395.847 144.920,395.414 143.300,395.066 142.200 C 394.719 141.100,393.988 138.670,393.443 136.800 C 392.229 132.635,390.822 128.730,390.351 128.220 C 390.158 128.011,390.000 127.547,390.000 127.188 C 390.000 126.829,389.551 125.650,389.002 124.568 C 388.453 123.486,388.003 122.394,388.002 122.142 C 388.000 121.699,386.745 118.835,383.689 112.300 C 382.119 108.942,380.821 108.062,380.888 110.401 M176.948 194.900 C 177.081 195.395,177.192 204.832,177.195 215.871 L 177.200 235.942 176.146 236.771 C 175.084 237.606,159.201 238.072,156.496 237.347 C 154.453 236.799,155.196 232.359,158.194 227.200 C 160.408 223.390,164.619 214.575,164.977 213.000 C 165.127 212.340,165.933 210.630,166.768 209.200 C 170.743 202.394,172.743 198.915,173.208 198.000 C 174.780 194.904,176.555 193.433,176.948 194.900 M132.167 346.052 C 132.470 368.476,132.369 370.361,130.813 371.193 C 126.128 373.700,125.078 367.828,126.737 348.400 C 127.269 342.170,127.954 336.398,128.211 335.983 C 128.335 335.781,128.597 334.308,128.793 332.708 C 129.392 327.813,129.917 325.320,130.641 323.930 L 131.334 322.600 131.605 323.600 C 131.754 324.150,132.007 334.253,132.167 346.052 M98.085 339.300 C 99.140 340.127,102.362 345.480,104.855 350.545 L 107.200 355.309 107.200 362.045 C 107.200 370.421,107.477 370.082,100.774 369.914 L 96.249 369.800 95.910 368.486 C 95.315 366.185,95.707 340.233,96.349 339.461 C 97.007 338.668,97.250 338.646,98.085 339.300 " stroke="none" fill="#1f1f1f" fill-rule="evenodd"></path></g></svg>